<svg width="278" height="89" viewBox="0 0 278 89" fill="none" xmlns="http://www.w3.org/2000/svg">
<path d="M263.178 47.8374L250.376 25.0709C249.592 23.6804 248.123 22.8205 246.529 22.8205H225.083C222.642 22.8205 220.673 24.7943 220.673 27.2309V47.7494H205.513V22.2522C205.513 20.7812 204.779 19.4032 203.549 18.586L177.102 0.961759L177.087 0.9517L177.074 0.941643C175.467 -0.0339894 173.921 -0.34579 172.412 0.458855C170.911 1.25596 170.051 2.88285 170.219 4.57261C170.219 4.57763 170.219 4.58015 170.219 4.58015C170.219 4.58518 170.219 4.59021 170.219 4.59775C170.219 4.60529 170.217 4.61284 170.217 4.61284V26.1195C170.217 27.6056 169.012 28.8176 167.519 28.8176C166.028 28.8176 164.821 27.6056 164.821 26.1195C164.821 23.6804 162.847 21.709 160.41 21.709C157.976 21.709 156 23.6829 156 26.122C156 32.4737 161.17 37.641 167.521 37.641C173.873 37.641 179.043 32.4737 179.043 26.122V16.4336L189.335 28.3096V47.7443H165.384C162.948 47.7443 160.974 49.7207 160.974 52.1548V73.1912C160.974 75.6303 162.948 77.6017 165.384 77.6017H168.648C170.141 84.1193 175.955 89 182.915 89C189.88 89 195.696 84.1193 197.19 77.6017H237.593C239.091 84.1193 244.902 89 251.86 89C258.828 89 264.644 84.1193 266.137 77.6017H273.067C275.509 77.6017 277.48 75.6303 277.48 73.1912V62.8918C277.48 54.8353 271.131 48.2875 263.178 47.8374ZM182.887 80.1615C179.671 80.1615 177.069 77.5539 177.069 74.3429C177.069 71.1293 179.679 68.5218 182.887 68.5218C186.103 68.5218 188.711 71.1293 188.711 74.3429C188.711 77.5539 186.106 80.1615 182.887 80.1615ZM229.493 47.7469V31.6389H243.952L253.014 47.7469H229.493ZM251.898 80.1615C248.682 80.1615 246.079 77.5539 246.079 74.3429C246.079 71.1293 248.687 68.5218 251.898 68.5218C255.106 68.5218 257.714 71.1293 257.714 74.3429C257.714 77.5539 255.111 80.1615 251.898 80.1615Z" fill="#00875F"/>
<path d="M25.4297 23.8047V35.4844C24.9479 36.0182 24.2057 36.5911 23.2031 37.2031C22.2135 37.8021 20.9635 38.3164 19.4531 38.7461C17.9427 39.1758 16.1654 39.3906 14.1211 39.3906C12.2331 39.3906 10.5208 39.0911 8.98438 38.4922C7.44792 37.8802 6.1263 36.9883 5.01953 35.8164C3.92578 34.6315 3.07943 33.1862 2.48047 31.4805C1.89453 29.7617 1.60156 27.7956 1.60156 25.582V24C1.60156 21.7865 1.90104 19.8203 2.5 18.1016C3.09896 16.3828 3.9388 14.9375 5.01953 13.7656C6.11328 12.5807 7.39583 11.6823 8.86719 11.0703C10.3516 10.4583 11.9792 10.1523 13.75 10.1523C16.3672 10.1523 18.4961 10.569 20.1367 11.4023C21.7773 12.2227 23.0208 13.362 23.8672 14.8203C24.7135 16.2656 25.2279 17.9388 25.4102 19.8398H18.8281C18.6979 18.9023 18.4505 18.1081 18.0859 17.457C17.7344 16.793 17.2266 16.2917 16.5625 15.9531C15.8984 15.6016 15.0391 15.4258 13.9844 15.4258C13.1641 15.4258 12.4154 15.6016 11.7383 15.9531C11.0742 16.3047 10.5078 16.8385 10.0391 17.5547C9.57031 18.2578 9.20573 19.1432 8.94531 20.2109C8.69792 21.2786 8.57422 22.5286 8.57422 23.9609V25.582C8.57422 27.0013 8.69141 28.2448 8.92578 29.3125C9.17318 30.3802 9.53776 31.2721 10.0195 31.9883C10.5143 32.6914 11.1393 33.2253 11.8945 33.5898C12.6628 33.9414 13.5677 34.1172 14.6094 34.1172C15.3385 34.1172 15.9635 34.0586 16.4844 33.9414C17.0052 33.8112 17.4349 33.6549 17.7734 33.4727C18.125 33.2773 18.3919 33.0951 18.5742 32.9258V28.5117H13.8086V23.8047H25.4297ZM41.4648 33.8633V17.8672H48.0664V39H41.8945L41.4648 33.8633ZM42.0898 29.5664L43.8086 29.5273C43.8086 30.9466 43.6393 32.2617 43.3008 33.4727C42.9622 34.6706 42.4609 35.7122 41.7969 36.5977C41.1458 37.4831 40.3385 38.1732 39.375 38.668C38.4245 39.1497 37.3242 39.3906 36.0742 39.3906C35.0326 39.3906 34.0755 39.2474 33.2031 38.9609C32.3438 38.6615 31.6016 38.1992 30.9766 37.5742C30.3516 36.9362 29.8633 36.1224 29.5117 35.1328C29.1732 34.1302 29.0039 32.9323 29.0039 31.5391V17.8672H35.5859V31.5781C35.5859 32.0469 35.6445 32.4505 35.7617 32.7891C35.8789 33.1276 36.0482 33.4141 36.2695 33.6484C36.4909 33.8698 36.7643 34.0391 37.0898 34.1562C37.4284 34.2604 37.8125 34.3125 38.2422 34.3125C39.2318 34.3125 40.0065 34.1042 40.5664 33.6875C41.1263 33.2708 41.5169 32.7044 41.7383 31.9883C41.9727 31.2721 42.0898 30.4648 42.0898 29.5664ZM58.6523 17.8672V39H52.0508V17.8672H58.6523ZM51.6602 12.418C51.6602 11.4805 51.9987 10.7122 52.6758 10.1133C53.3529 9.51432 54.2318 9.21484 55.3125 9.21484C56.3932 9.21484 57.2721 9.51432 57.9492 10.1133C58.6263 10.7122 58.9648 11.4805 58.9648 12.418C58.9648 13.3555 58.6263 14.1237 57.9492 14.7227C57.2721 15.3216 56.3932 15.6211 55.3125 15.6211C54.2318 15.6211 53.3529 15.3216 52.6758 14.7227C51.9987 14.1237 51.6602 13.3555 51.6602 12.418ZM69.1797 22.3789V39H62.5977V17.8672H68.7695L69.1797 22.3789ZM68.3984 27.7109L66.8555 27.75C66.8555 26.1354 67.0508 24.6966 67.4414 23.4336C67.832 22.1576 68.3854 21.0768 69.1016 20.1914C69.8177 19.306 70.6706 18.6354 71.6602 18.1797C72.6628 17.7109 73.776 17.4766 75 17.4766C75.9766 17.4766 76.8685 17.6198 77.6758 17.9062C78.4961 18.1927 79.1992 18.6549 79.7852 19.293C80.3841 19.931 80.8398 20.7773 81.1523 21.832C81.4779 22.8737 81.6406 24.1628 81.6406 25.6992V39H75.0195V25.6797C75.0195 24.8333 74.9023 24.1888 74.668 23.7461C74.4336 23.2904 74.0951 22.9779 73.6523 22.8086C73.2096 22.6393 72.6693 22.5547 72.0312 22.5547C71.3542 22.5547 70.7812 22.6849 70.3125 22.9453C69.8438 23.2057 69.4661 23.5703 69.1797 24.0391C68.9062 24.4948 68.7044 25.0352 68.5742 25.6602C68.457 26.2852 68.3984 26.9688 68.3984 27.7109ZM94.2188 34.3125C94.8307 34.3125 95.3516 34.2018 95.7812 33.9805C96.224 33.7461 96.556 33.4206 96.7773 33.0039C97.0117 32.5742 97.1224 32.0599 97.1094 31.4609H103.301C103.314 33.0495 102.923 34.4427 102.129 35.6406C101.348 36.8255 100.28 37.75 98.9258 38.4141C97.5846 39.0651 96.0677 39.3906 94.375 39.3906C92.7214 39.3906 91.276 39.1237 90.0391 38.5898C88.8021 38.043 87.7669 37.2878 86.9336 36.3242C86.1133 35.3477 85.4948 34.2083 85.0781 32.9062C84.6745 31.6042 84.4727 30.1914 84.4727 28.668V28.2188C84.4727 26.6953 84.6745 25.2826 85.0781 23.9805C85.4948 22.6654 86.1133 21.526 86.9336 20.5625C87.7669 19.5859 88.7956 18.8307 90.0195 18.2969C91.2565 17.75 92.6953 17.4766 94.3359 17.4766C96.0938 17.4766 97.6432 17.8086 98.9844 18.4727C100.339 19.1367 101.4 20.1003 102.168 21.3633C102.936 22.6263 103.314 24.1562 103.301 25.9531H97.1094C97.1224 25.3151 97.0247 24.7422 96.8164 24.2344C96.6081 23.7266 96.2826 23.3229 95.8398 23.0234C95.4102 22.7109 94.8568 22.5547 94.1797 22.5547C93.5026 22.5547 92.9557 22.7044 92.5391 23.0039C92.1224 23.3034 91.8034 23.7201 91.582 24.2539C91.3737 24.7747 91.2305 25.3737 91.1523 26.0508C91.0872 26.7279 91.0547 27.4505 91.0547 28.2188V28.668C91.0547 29.4492 91.0872 30.1849 91.1523 30.875C91.2305 31.5521 91.3802 32.151 91.6016 32.6719C91.8229 33.1797 92.1419 33.5833 92.5586 33.8828C92.9753 34.1693 93.5286 34.3125 94.2188 34.3125ZM112.559 9V39H105.977V9H112.559ZM111.777 27.7109L110.234 27.75C110.234 26.2656 110.417 24.8984 110.781 23.6484C111.146 22.3984 111.667 21.3112 112.344 20.3867C113.021 19.4622 113.835 18.7461 114.785 18.2383C115.736 17.7305 116.79 17.4766 117.949 17.4766C118.991 17.4766 119.941 17.6263 120.801 17.9258C121.673 18.2253 122.422 18.707 123.047 19.3711C123.685 20.0352 124.173 20.901 124.512 21.9688C124.863 23.0365 125.039 24.3385 125.039 25.875V39H118.418V25.8359C118.418 24.9766 118.294 24.3125 118.047 23.8438C117.812 23.362 117.474 23.0299 117.031 22.8477C116.589 22.6523 116.048 22.5547 115.41 22.5547C114.642 22.5547 114.017 22.6849 113.535 22.9453C113.053 23.2057 112.682 23.5703 112.422 24.0391C112.174 24.4948 112.005 25.0352 111.914 25.6602C111.823 26.2852 111.777 26.9688 111.777 27.7109ZM127.871 28.6484V28.2383C127.871 26.6888 128.092 25.263 128.535 23.9609C128.978 22.6458 129.629 21.5065 130.488 20.543C131.348 19.5794 132.409 18.8307 133.672 18.2969C134.935 17.75 136.393 17.4766 138.047 17.4766C139.714 17.4766 141.178 17.75 142.441 18.2969C143.717 18.8307 144.785 19.5794 145.645 20.543C146.504 21.5065 147.155 22.6458 147.598 23.9609C148.04 25.263 148.262 26.6888 148.262 28.2383V28.6484C148.262 30.1849 148.04 31.6107 147.598 32.9258C147.155 34.2279 146.504 35.3672 145.645 36.3438C144.785 37.3073 143.724 38.056 142.461 38.5898C141.198 39.1237 139.74 39.3906 138.086 39.3906C136.432 39.3906 134.967 39.1237 133.691 38.5898C132.415 38.056 131.348 37.3073 130.488 36.3438C129.629 35.3672 128.978 34.2279 128.535 32.9258C128.092 31.6107 127.871 30.1849 127.871 28.6484ZM134.453 28.2383V28.6484C134.453 29.4427 134.512 30.1849 134.629 30.875C134.746 31.5651 134.941 32.1706 135.215 32.6914C135.488 33.1992 135.859 33.5964 136.328 33.8828C136.797 34.1693 137.383 34.3125 138.086 34.3125C138.776 34.3125 139.349 34.1693 139.805 33.8828C140.273 33.5964 140.645 33.1992 140.918 32.6914C141.191 32.1706 141.387 31.5651 141.504 30.875C141.621 30.1849 141.68 29.4427 141.68 28.6484V28.2383C141.68 27.4701 141.621 26.7474 141.504 26.0703C141.387 25.3802 141.191 24.7747 140.918 24.2539C140.645 23.7201 140.273 23.3034 139.805 23.0039C139.336 22.7044 138.75 22.5547 138.047 22.5547C137.357 22.5547 136.777 22.7044 136.309 23.0039C135.853 23.3034 135.488 23.7201 135.215 24.2539C134.941 24.7747 134.746 25.3802 134.629 26.0703C134.512 26.7474 134.453 27.4701 134.453 28.2383Z" fill="#1B1B1B"/>
<path d="M36.957 70.7266V76H22.582V70.7266H36.957ZM25.0234 47.5625V76H18.168V47.5625H25.0234ZM50.5117 70.6875V61.9766C50.5117 61.3776 50.4271 60.8633 50.2578 60.4336C50.0885 60.0039 49.8216 59.6719 49.457 59.4375C49.0924 59.1901 48.6042 59.0664 47.9922 59.0664C47.4974 59.0664 47.0742 59.151 46.7227 59.3203C46.3711 59.4896 46.1042 59.7435 45.9219 60.082C45.7396 60.4206 45.6484 60.8503 45.6484 61.3711H39.0664C39.0664 60.3945 39.2812 59.4896 39.7109 58.6562C40.1536 57.8099 40.7786 57.0742 41.5859 56.4492C42.4062 55.8242 43.3828 55.3424 44.5156 55.0039C45.6615 54.6523 46.9375 54.4766 48.3438 54.4766C50.0234 54.4766 51.5208 54.7565 52.8359 55.3164C54.1641 55.8763 55.2122 56.7161 55.9805 57.8359C56.7487 58.9427 57.1328 60.3359 57.1328 62.0156V70.668C57.1328 72.0482 57.2109 73.0964 57.3672 73.8125C57.5234 74.5156 57.7448 75.1341 58.0312 75.668V76H51.4297C51.1172 75.349 50.8828 74.5547 50.7266 73.6172C50.5833 72.6667 50.5117 71.6901 50.5117 70.6875ZM51.3125 63.0898L51.3516 66.6055H48.4414C47.8294 66.6055 47.3086 66.6901 46.8789 66.8594C46.4622 67.0286 46.1237 67.263 45.8633 67.5625C45.6159 67.849 45.4336 68.1745 45.3164 68.5391C45.2122 68.9036 45.1602 69.2878 45.1602 69.6914C45.1602 70.082 45.2513 70.4336 45.4336 70.7461C45.6289 71.0456 45.8893 71.2799 46.2148 71.4492C46.5404 71.6185 46.9049 71.7031 47.3086 71.7031C48.0378 71.7031 48.6562 71.5664 49.1641 71.293C49.6849 71.0065 50.082 70.6615 50.3555 70.2578C50.6289 69.8542 50.7656 69.4766 50.7656 69.125L52.2109 71.8203C51.9505 72.3411 51.651 72.8685 51.3125 73.4023C50.987 73.9362 50.5768 74.431 50.082 74.8867C49.6003 75.3294 49.0078 75.694 48.3047 75.9805C47.6016 76.2539 46.7487 76.3906 45.7461 76.3906C44.444 76.3906 43.2461 76.1237 42.1523 75.5898C41.0716 75.056 40.2057 74.3138 39.5547 73.3633C38.9036 72.3997 38.5781 71.293 38.5781 70.043C38.5781 68.9492 38.7734 67.9727 39.1641 67.1133C39.5677 66.2539 40.1732 65.5247 40.9805 64.9258C41.7878 64.3268 42.8164 63.8711 44.0664 63.5586C45.3164 63.2461 46.7878 63.0898 48.4805 63.0898H51.3125ZM74.0664 54.8672H80.043V75.1797C80.043 77.1328 79.5938 78.7865 78.6953 80.1406C77.7969 81.5078 76.5404 82.543 74.9258 83.2461C73.3242 83.9622 71.4492 84.3203 69.3008 84.3203C68.3503 84.3203 67.3802 84.1966 66.3906 83.9492C65.401 83.7148 64.4766 83.3633 63.6172 82.8945C62.7578 82.4258 62.0352 81.8464 61.4492 81.1562L64.2031 77.2891C64.737 77.888 65.4076 78.3958 66.2148 78.8125C67.0221 79.2422 67.9727 79.457 69.0664 79.457C70.0169 79.457 70.8112 79.2878 71.4492 78.9492C72.1003 78.6107 72.5951 78.1159 72.9336 77.4648C73.2721 76.8268 73.4414 76.0521 73.4414 75.1406V59.8672L74.0664 54.8672ZM60.0234 65.6875V65.2773C60.0234 63.6758 60.2188 62.2174 60.6094 60.9023C61.013 59.5742 61.5859 58.4349 62.3281 57.4844C63.0833 56.5208 63.9948 55.7786 65.0625 55.2578C66.1302 54.737 67.3346 54.4766 68.6758 54.4766C70.1211 54.4766 71.306 54.7565 72.2305 55.3164C73.168 55.8633 73.9167 56.6315 74.4766 57.6211C75.0495 58.6107 75.4922 59.7695 75.8047 61.0977C76.1302 62.4128 76.4036 63.832 76.625 65.3555V65.8438C76.4036 67.276 76.0977 68.6302 75.707 69.9062C75.3294 71.1693 74.8346 72.2891 74.2227 73.2656C73.6107 74.2422 72.8424 75.0104 71.918 75.5703C71.0065 76.1172 69.9128 76.3906 68.6367 76.3906C67.3086 76.3906 66.1107 76.1237 65.043 75.5898C63.9883 75.056 63.0833 74.3073 62.3281 73.3438C61.5859 72.3802 61.013 71.2474 60.6094 69.9453C60.2188 68.6432 60.0234 67.224 60.0234 65.6875ZM66.6055 65.2773V65.6875C66.6055 66.4818 66.6771 67.2174 66.8203 67.8945C66.9766 68.5716 67.2109 69.1706 67.5234 69.6914C67.8359 70.1992 68.2201 70.5964 68.6758 70.8828C69.1445 71.1693 69.6914 71.3125 70.3164 71.3125C71.2669 71.3125 72.0352 71.1107 72.6211 70.707C73.207 70.3034 73.6302 69.7305 73.8906 68.9883C74.151 68.2461 74.2617 67.3737 74.2227 66.3711V64.8281C74.2487 63.9688 74.1901 63.2135 74.0469 62.5625C73.9036 61.8984 73.6758 61.3451 73.3633 60.9023C73.0638 60.4596 72.6602 60.1276 72.1523 59.9062C71.6576 59.6719 71.0586 59.5547 70.3555 59.5547C69.7435 59.5547 69.2031 59.6979 68.7344 59.9844C68.2656 60.2708 67.875 60.6745 67.5625 61.1953C67.25 61.7031 67.0091 62.3086 66.8398 63.0117C66.6836 63.7018 66.6055 64.457 66.6055 65.2773ZM94.8086 70.6875V61.9766C94.8086 61.3776 94.724 60.8633 94.5547 60.4336C94.3854 60.0039 94.1185 59.6719 93.7539 59.4375C93.3893 59.1901 92.901 59.0664 92.2891 59.0664C91.7943 59.0664 91.3711 59.151 91.0195 59.3203C90.668 59.4896 90.401 59.7435 90.2188 60.082C90.0365 60.4206 89.9453 60.8503 89.9453 61.3711H83.3633C83.3633 60.3945 83.5781 59.4896 84.0078 58.6562C84.4505 57.8099 85.0755 57.0742 85.8828 56.4492C86.7031 55.8242 87.6797 55.3424 88.8125 55.0039C89.9583 54.6523 91.2344 54.4766 92.6406 54.4766C94.3203 54.4766 95.8177 54.7565 97.1328 55.3164C98.4609 55.8763 99.5091 56.7161 100.277 57.8359C101.046 58.9427 101.43 60.3359 101.43 62.0156V70.668C101.43 72.0482 101.508 73.0964 101.664 73.8125C101.82 74.5156 102.042 75.1341 102.328 75.668V76H95.7266C95.4141 75.349 95.1797 74.5547 95.0234 73.6172C94.8802 72.6667 94.8086 71.6901 94.8086 70.6875ZM95.6094 63.0898L95.6484 66.6055H92.7383C92.1263 66.6055 91.6055 66.6901 91.1758 66.8594C90.7591 67.0286 90.4206 67.263 90.1602 67.5625C89.9128 67.849 89.7305 68.1745 89.6133 68.5391C89.5091 68.9036 89.457 69.2878 89.457 69.6914C89.457 70.082 89.5482 70.4336 89.7305 70.7461C89.9258 71.0456 90.1862 71.2799 90.5117 71.4492C90.8372 71.6185 91.2018 71.7031 91.6055 71.7031C92.3346 71.7031 92.9531 71.5664 93.4609 71.293C93.9818 71.0065 94.3789 70.6615 94.6523 70.2578C94.9258 69.8542 95.0625 69.4766 95.0625 69.125L96.5078 71.8203C96.2474 72.3411 95.9479 72.8685 95.6094 73.4023C95.2839 73.9362 94.8737 74.431 94.3789 74.8867C93.8971 75.3294 93.3047 75.694 92.6016 75.9805C91.8984 76.2539 91.0456 76.3906 90.043 76.3906C88.7409 76.3906 87.543 76.1237 86.4492 75.5898C85.3685 75.056 84.5026 74.3138 83.8516 73.3633C83.2005 72.3997 82.875 71.293 82.875 70.043C82.875 68.9492 83.0703 67.9727 83.4609 67.1133C83.8646 66.2539 84.4701 65.5247 85.2773 64.9258C86.0846 64.3268 87.1133 63.8711 88.3633 63.5586C89.6133 63.2461 91.0846 63.0898 92.7773 63.0898H95.6094ZM111.723 60.1016V76H105.141V54.8672H111.293L111.723 60.1016ZM117.973 54.7109L117.855 60.8242C117.595 60.7982 117.243 60.7656 116.801 60.7266C116.358 60.6875 115.987 60.668 115.688 60.668C114.919 60.668 114.255 60.7591 113.695 60.9414C113.148 61.1107 112.693 61.3711 112.328 61.7227C111.977 62.0612 111.716 62.4909 111.547 63.0117C111.391 63.5326 111.319 64.138 111.332 64.8281L110.141 64.0469C110.141 62.6276 110.277 61.3385 110.551 60.1797C110.837 59.0078 111.241 57.9987 111.762 57.1523C112.283 56.293 112.914 55.6354 113.656 55.1797C114.398 54.7109 115.232 54.4766 116.156 54.4766C116.482 54.4766 116.801 54.4961 117.113 54.5352C117.439 54.5742 117.725 54.6328 117.973 54.7109ZM132.348 54.8672V59.4375H119.613V54.8672H132.348ZM122.289 49.6133H128.871V69.1055C128.871 69.6654 128.936 70.1016 129.066 70.4141C129.197 70.7135 129.418 70.9284 129.73 71.0586C130.056 71.1758 130.486 71.2344 131.02 71.2344C131.397 71.2344 131.71 71.2279 131.957 71.2148C132.204 71.1888 132.439 71.1562 132.66 71.1172V75.8242C132.1 76.0065 131.514 76.1432 130.902 76.2344C130.29 76.3385 129.639 76.3906 128.949 76.3906C127.543 76.3906 126.339 76.1693 125.336 75.7266C124.346 75.2839 123.591 74.5872 123.07 73.6367C122.549 72.6862 122.289 71.4492 122.289 69.9258V49.6133ZM133.559 65.6484V65.2383C133.559 63.6888 133.78 62.263 134.223 60.9609C134.665 59.6458 135.316 58.5065 136.176 57.543C137.035 56.5794 138.096 55.8307 139.359 55.2969C140.622 54.75 142.081 54.4766 143.734 54.4766C145.401 54.4766 146.866 54.75 148.129 55.2969C149.405 55.8307 150.473 56.5794 151.332 57.543C152.191 58.5065 152.842 59.6458 153.285 60.9609C153.728 62.263 153.949 63.6888 153.949 65.2383V65.6484C153.949 67.1849 153.728 68.6107 153.285 69.9258C152.842 71.2279 152.191 72.3672 151.332 73.3438C150.473 74.3073 149.411 75.056 148.148 75.5898C146.885 76.1237 145.427 76.3906 143.773 76.3906C142.12 76.3906 140.655 76.1237 139.379 75.5898C138.103 75.056 137.035 74.3073 136.176 73.3438C135.316 72.3672 134.665 71.2279 134.223 69.9258C133.78 68.6107 133.559 67.1849 133.559 65.6484ZM140.141 65.2383V65.6484C140.141 66.4427 140.199 67.1849 140.316 67.875C140.434 68.5651 140.629 69.1706 140.902 69.6914C141.176 70.1992 141.547 70.5964 142.016 70.8828C142.484 71.1693 143.07 71.3125 143.773 71.3125C144.464 71.3125 145.036 71.1693 145.492 70.8828C145.961 70.5964 146.332 70.1992 146.605 69.6914C146.879 69.1706 147.074 68.5651 147.191 67.875C147.309 67.1849 147.367 66.4427 147.367 65.6484V65.2383C147.367 64.4701 147.309 63.7474 147.191 63.0703C147.074 62.3802 146.879 61.7747 146.605 61.2539C146.332 60.7201 145.961 60.3034 145.492 60.0039C145.023 59.7044 144.438 59.5547 143.734 59.5547C143.044 59.5547 142.465 59.7044 141.996 60.0039C141.54 60.3034 141.176 60.7201 140.902 61.2539C140.629 61.7747 140.434 62.3802 140.316 63.0703C140.199 63.7474 140.141 64.4701 140.141 65.2383Z" fill="#1B1B1B"/>
</svg>
